<?xml version="1.0" encoding="utf-8"?>
<!-- Generator: Adobe Illustrator 15.0.0, SVG Export Plug-In . SVG Version: 6.00 Build 0)  -->
<!DOCTYPE svg PUBLIC "-//W3C//DTD SVG 1.1//EN" "http://www.w3.org/Graphics/SVG/1.1/DTD/svg11.dtd">
<svg version="1.1" id="Layer_1" xmlns="http://www.w3.org/2000/svg" xmlns:xlink="http://www.w3.org/1999/xlink" x="0px" y="0px"
	 width="1000px" height="1000px" viewBox="0 0 1000 1000" enable-background="new 0 0 1000 1000" xml:space="preserve">
<polygon fill="#FFCC00" points="66.987,250 500,0 933.013,250 933.013,750 500,1000 66.988,750 "/>
<polygon fill="#FFCC00" points="240.193,612.377 500,162.377 759.808,612.377 "/>
<polygon fill="#DDAA00" points="240.193,612.377 500,1000 759.808,612.377 "/>
<polygon fill="#CC9900" points="66.988,750 240.193,612.377 500,1000 "/>
<polygon fill="#CC9900" points="759.808,612.377 933.013,750 500,1000 "/>
<polygon fill="#DDAA00" points="933.013,250 759.808,612.377 933.013,750 "/>
<polygon fill="#FFEE22" points="500,162.377 500,0 933.013,250 "/>
<polygon fill="#FFDD11" points="759.808,612.377 933.013,250 500,162.377 "/>
<polygon fill="#FFCC00" points="500,0 500,162.377 66.987,250 "/>
<polygon fill="#EEBB00" points="240.193,612.377 500,162.377 66.987,250 "/>
<polygon fill="#DDAA00" points="66.988,750 240.193,612.377 66.987,250 "/>
</svg>
